# xmcd CD database file generated by OrangeCD 5.2
#
# Track frame offsets:
#	150
#	17188
#	27564
#	39778
#	53485
#	66127
#	78242
#	91602
#	119945
#	131884
#	146552
#	157343
#	168500
#	181544
#	194452
#	209547
#
# Disc length: 2922 seconds
#
# Revision: 0
# Processed by: cddbd v1.5.1PL0 Copyright (c) Steve Scherf et al.
# Submitted via: OrangeCD 5.2
#
DISCID=e00b6810
DTITLE=Various Artist - Soul From The Cities Volume 3 Memphis
DYEAR=1999
DGENRE=R&B Compilation
TTITLE0=Al Green - I Can't Get Next To You
TTITLE1=Willie Mitchell - Soul Serenade
TTITLE2=Ann Peebles - I'm Gonna Tear Your Playhouse Down
TTITLE3=Syl Johnson - Take Me To The River
TTITLE4=Charlie Rich - When Something Is Wrong With My Baby 
TTITLE5=Veniece - Trying To Live My Life Without You
TTITLE6=George Jackson - Aretha Sing One For Me
TTITLE7=Al Green - How Can You Mend  A Broken Heart?
TTITLE8=Don Bryant - Slip Away
TTITLE9=Otis Clay - Precious, Precious
TTITLE10=Willie Clayton - Hello, How Have You Been? 
TTITLE11=Ann Peebles - I Can't Stand The Rain
TTITLE12=Joe Lee Carter - As The Years Go Passing By
TTITLE13=Quiet Elegance - You've Got My Mind Messed Up
TTITLE14=O.V. Wright - Rhymes
TTITLE15=Willie Mitchell  and Don Bryant - That Driving Beat
EXTD=
EXTT0=
EXTT1=
EXTT2=
EXTT3=
EXTT4=
EXTT5=
EXTT6=
EXTT7=
EXTT8=
EXTT9=
EXTT10=
EXTT11=
EXTT12=
EXTT13=
EXTT14=
EXTT15=
PLAYORDER=
